PathFileType	4	(X/Y/Z)	Patient4_TMGait_0pt4_01_right_26.trc.trc
DataRate	CameraRate	NumFrames	NumMarkers	Units	OrigDataRate	OrigDataStartFrame	OrigNumFrames
74.074074074074	74.074074074074	4	33	mm	74.074074074074	89	       141
Frame#	Time	Sacral			L.Shoulder			Chest			R.Shoulder			Neck			R.ASIS			L.ASIS			R.Thigh.Superior			R.Thigh.Lateral			R.Thigh.Inferior			R.Patella			L.Thigh.Superior			L.Thigh.Lateral			L.Thigh.Inferior			L.Patella			L.Shank.Superior			L.Shank.Lateral			L.Shank.Inferior			R.Shank.Superior			R.Shank.Lateral			R.Shank.Inferior			R.Heel			R.Midfoot.Superior			R.Midfoot.Lateral			R.Toe			L.Heel			L.Midfoot.Lateral			L.Midfoot.Superior			L.Toe			L.Elbow			L.Wrist			R.Elbow			R.Wrist			
		X1	Y1	Z1	X2	Y2	Z2	X3	Y3	Z3	X4	Y4	Z4	X5	Y5	Z5	X6	Y6	Z6	X7	Y7	Z7	X8	Y8	Z8	X9	Y9	Z9	X10	Y10	Z10	X11	Y11	Z11	X12	Y12	Z12	X13	Y13	Z13	X14	Y14	Z14	X15	Y15	Z15	X16	Y16	Z16	X17	Y17	Z17	X18	Y18	Z18	X19	Y19	Z19	X20	Y20	Z20	X21	Y21	Z21	X22	Y22	Z22	X23	Y23	Z23	X24	Y24	Z24	X25	Y25	Z25	X26	Y26	Z26	X27	Y27	Z27	X28	Y28	Z28	X29	Y29	Z29	X30	Y30	Z30	X31	Y31	Z31	X32	Y32	Z32	X33	Y33	Z33	

89	34.648000000000	908.367028164749	1008.902789518570	452.780187588205	1089.967146311586	1433.406319418695	259.027268667749	1195.004903206296	1368.425086407100	419.578896390699	1114.202010226291	1447.349342830170	592.686302556005	1077.352568338253	1497.167886286264	413.722644166884	1135.977221522984	946.418169097573	569.367497587272	1124.082130406573	961.839879231984	296.448058360677	1184.094601224167	745.376171744042	552.334829640272	1109.731874987300	635.007327207328	621.399771179837	1192.357200562227	577.569543720083	548.568722297589	1188.337130922025	470.825830380982	570.715529774265	1182.561820484280	757.400203638613	327.083161818495	1103.145833376409	635.255974497481	269.187405089142	1192.821725967347	564.140885883416	332.829936407280	1197.487607129255	494.468180654354	343.453758690587	1172.207000499963	420.771725293198	336.267803797656	1086.447694630445	304.643155142683	283.553883380194	1136.117808534023	194.372983401017	356.780110759849	1115.297244203363	400.003581716216	577.502854319832	998.989849906048	353.707911138153	642.513129264756	989.416341346612	244.269752024677	591.805191975972	791.128895059938	164.737705547968	571.171196377528	965.185928650442	124.678283871611	603.554502287467	858.637867262693	110.603262470756	641.110451266091	1043.126516265583	32.160803536796	624.088154139480	1009.296324345915	38.761479868857	395.586527910194	1085.034180284278	36.109428785910	316.564484125608	1167.477632309320	96.715362606533	346.227067351432	1296.923747999125	44.093252398587	320.463813935382	1039.779237506580	1089.008782045492	131.944846416753	1157.194352156729	853.175265058003	123.159245959598	1114.109612524230	1103.473424333305	724.693383604619	1263.956716850392	891.149196353217	702.773560461076	
90	34.661500000000	907.140990009997	1008.486851396562	449.854914084991	1091.017843202933	1432.876722608691	256.090617941220	1194.403722526349	1368.145172163537	417.833774421377	1111.910348307183	1447.260094584239	590.105248128480	1077.106386160789	1496.991410837100	410.619606978641	1134.531455763510	946.712240249849	567.690389884250	1123.636251944700	961.675539633489	294.616153896346	1188.264753767863	748.621930375999	549.818036136213	1117.886710343740	636.373021769537	619.285296005575	1202.086521072880	580.903477612443	546.285467332633	1200.084263178867	473.048294703229	568.747268708037	1181.310888448726	756.556357578063	325.406756653516	1101.412677600409	634.987053474368	267.670224317051	1190.223918579652	563.464906060368	331.983534839738	1194.332934994333	493.790197745242	342.803715590772	1168.818943627304	420.126375019992	335.655608592813	1082.781157036552	304.271917185148	282.986781148384	1131.447496878939	194.011092922470	356.744031237211	1125.540505434241	402.436286577566	575.781721786322	1007.832738915940	359.503548481724	640.767262606847	995.419935276544	250.099041737740	590.832223317044	795.439139084329	178.326597968091	570.107304806622	967.526326556530	129.958132684844	603.286069273970	860.080655846358	121.065469929912	640.344402216200	1040.506697639621	31.820555860694	624.281964208906	1003.855671891054	38.729659393881	395.515938100621	1079.596984061412	36.074922651826	316.492519500230	1162.082312591664	96.614758457958	346.237482042870	1291.533470780034	43.880727559088	320.444493981233	1047.335981581698	1088.507321073087	126.446084237452	1172.312174385731	856.454413995019	120.051106857849	1102.998557894696	1103.301582166752	721.688457997339	1241.983207149498	882.828342350996	705.392278620540	
91	34.675000000000	905.815041476199	1008.111802311826	447.076883498270	1091.917905508596	1432.377579382808	253.384916173299	1193.688273680769	1367.887513097691	416.266734883768	1109.535769999796	1447.146368721673	587.709577439003	1076.808849011381	1496.837749319059	407.746629002357	1133.019207783881	947.076857544476	566.139908166445	1123.102394303147	961.543763675799	292.911384150097	1191.991185087296	752.126602455398	547.169793649991	1125.716574468816	638.161265955272	617.165430282640	1211.244277884551	584.710315460997	543.836744702505	1211.488445794165	475.868859708990	566.588139386012	1180.050278857796	755.797469839249	324.012596779019	1099.733426010974	634.734512869762	266.348317331535	1187.705779039264	562.822304735498	331.329244310012	1191.279925032347	493.124332261507	342.351847985031	1165.502641270213	419.497437099965	335.202368921873	1079.173180170054	303.952087982529	282.514887451040	1126.819525051906	193.666903226641	356.748391025806	1135.716712639373	405.289532520137	573.927546149346	1016.798297713954	365.287557461300	638.819940521061	1001.982409393883	255.925892223152	589.617583686991	800.786881415139	190.962767705696	568.610758830805	970.901906004723	135.344208537411	602.794347683370	862.721115743428	131.080419838790	639.251165475482	1039.316754523874	31.913388190000	624.389591162050	998.431519264665	38.711703356173	395.441169425235	1074.181729379938	36.057967814789	316.424930831693	1156.708874038561	96.540336317715	346.248043035451	1286.160888598337	43.692219602819	320.420609420532	1055.190631852161	1088.149456179444	121.195122512047	1187.490531534587	860.117813913989	117.296314943131	1091.680636166363	1103.379516123387	718.881673784077	1219.410378831273	875.584424531392	708.117643396174	
92	34.688500000000	904.423027865789	1007.826072797180	444.421460983178	1092.693991184990	1431.958782511541	250.907610002222	1192.878265728016	1367.695350072787	414.873912001508	1107.094794887677	1447.064111343310	585.486591781904	1076.458092341411	1496.745538988329	405.103924079740	1131.436581701711	947.545137695945	564.698245588407	1122.528208500875	961.475067199151	291.332598355082	1195.210756325846	755.854165397997	544.448532949060	1133.086611872800	640.368394947215	615.096915287747	1219.701494563105	588.942414552798	541.302321927426	1222.391791982447	479.252684254470	564.355998921786	1178.778470113286	755.107392872524	322.825274419367	1098.025612016537	634.500828244797	265.200384672865	1185.197117869267	562.200735370056	330.808064733785	1188.255603420680	492.477577934001	342.048084763176	1162.192974559642	418.897972592356	334.866371561668	1075.556390815842	303.685164707211	282.108975314912	1122.198925686857	193.348491326517	356.765936813872	1145.702992994269	408.514181884140	572.030608669184	1025.760682909831	370.884931789072	636.732089720500	1009.114245514989	261.526723415027	588.218740702546	807.151817251980	202.059239729977	566.739263477200	975.483689776887	140.585030048334	602.089554925754	866.710572064723	140.142168588517	637.856462773758	1039.994970729932	32.504907712052	624.356454877169	993.015701228016	38.707106979677	395.363354991369	1068.780614155430	36.052709068745	316.360076298009	1151.349280481766	96.488647168382	346.250026755656	1280.798256092315	43.525223468411	320.392264355512	1063.258572875586	1087.995272183743	116.248504396253	1202.664477884632	864.230562847492	114.915873090842	1080.253181117526	1103.768833060303	716.272346668251	1196.431186149610	869.494111600684	710.893425989701	
